<?xml version="1.0" encoding="UTF-8"?>
<svg id="Layer_2" data-name="Layer 2" xmlns="http://www.w3.org/2000/svg" width="40"
     height="40" viewBox="0 0 40 40">
    <defs>
        <style>
            .cls-1 {
            fill: #000;
            }
            .cls-1, .cls-2 {
            stroke-width: 0px;
            }
            .cls-2 {
            fill: #fff;
            }
        </style>
    </defs>
    <g id="colors">
        <g>
            <path class="cls-1"
                  d="M20,39.5C9.24755859375,39.5.5,30.75244140625.5,20S9.24755859375.5,20,.5s19.5,8.74755859375,19.5,19.5-8.74755859375,19.5-19.5,19.5Z" />
            <path class="cls-2"
                  d="M20,1c10.4766845703125,0,19,8.5233154296875,19,19s-8.5233154296875,19-19,19S1,30.4766845703125,1,20,9.5233154296875,1,20,1M20,0C8.954345703125,0,0,8.954345703125,0,20s8.954345703125,20,20,20,20-8.954345703125,20-20S31.045654296875,0,20,0h0Z" />
        </g>
    </g>
</svg>
